<?xml version="1.0" standalone="no"?>
<!DOCTYPE svg PUBLIC "-//W3C//DTD SVG 20010904//EN"
 "http://www.w3.org/TR/2001/REC-SVG-20010904/DTD/svg10.dtd">
<svg version="1.0" xmlns="http://www.w3.org/2000/svg"
 width="1280.000000pt" height="720.000000pt" viewBox="0 0 1280.000000 720.000000"
 preserveAspectRatio="xMidYMid meet">

<g transform="translate(0.000000,720.000000) scale(0.100000,-0.100000)"
fill="#000000" stroke="none">
<path d="M6612 4073 l3 -68 80 -48 c44 -26 94 -63 110 -81 43 -48 224 -149
242 -135 29 24 3 99 -34 99 -5 0 -18 9 -27 19 -27 30 -228 176 -238 173 -20
-5 -70 31 -93 68 -36 58 -46 51 -43 -27z"/>
<path d="M6826 3444 c-10 -26 -7 -152 4 -159 5 -3 8 0 5 7 -4 10 11 12 66 10
62 -3 74 -1 94 18 13 12 28 20 33 16 7 -4 32 33 32 49 0 11 -81 55 -100 55
-12 0 -19 4 -16 9 3 4 -21 9 -53 10 -46 1 -60 -2 -65 -15z"/>
<path d="M6790 3286 c0 -2 7 -7 16 -10 8 -3 12 -2 9 4 -6 10 -25 14 -25 6z"/>
<path d="M7846 2929 c5 -8 9 -17 10 -21 1 -5 3 -10 4 -13 1 -3 4 -23 5 -45 1
-22 4 -42 5 -45 1 -3 3 -8 4 -12 1 -5 4 -12 7 -18 4 -5 5 -18 4 -28 -3 -14 12
-9 76 25 43 24 79 46 79 49 0 5 -99 65 -194 117 -5 3 -5 -1 0 -9z"/>
<path d="M5347 2514 c-13 -14 56 -60 73 -49 6 3 10 12 9 18 0 9 -2 9 -6 0 -7
-19 -20 -16 -46 12 -13 14 -26 23 -30 19z"/>
<path d="M5517 2399 c13 -12 31 -15 30 -4 -1 5 -10 10 -20 10 -10 1 -14 -2
-10 -6z"/>
</g>
</svg>
